<mxfile host="Electron" agent="Mozilla/5.0 (Windows NT 10.0; Win64; x64) AppleWebKit/537.36 (KHTML, like Gecko) draw.io/26.1.1 Chrome/132.0.6834.210 Electron/34.3.3 Safari/537.36" version="26.1.1">
  <diagram id="2f404044-711c-603c-8f00-f6bb4c023d3c" name="Page-1">
    <mxGraphModel dx="3200" dy="130" grid="0" gridSize="10" guides="1" tooltips="1" connect="1" arrows="1" fold="1" page="0" pageScale="1" pageWidth="827" pageHeight="1169" background="none" math="0" shadow="0">
      <root>
        <mxCell id="0" />
        <mxCell id="1" parent="0" />
        <mxCell id="0Z_G-xEnXc7bXnKemrVB-617" value="" style="group" vertex="1" connectable="0" parent="1">
          <mxGeometry x="509" y="1569" width="650" height="480" as="geometry" />
        </mxCell>
        <mxCell id="0Z_G-xEnXc7bXnKemrVB-615" value="" style="rounded=1;whiteSpace=wrap;html=1;fillColor=none;fontColor=#333333;strokeColor=#14213D;strokeWidth=6;" vertex="1" parent="0Z_G-xEnXc7bXnKemrVB-617">
          <mxGeometry y="84" width="649" height="361" as="geometry" />
        </mxCell>
        <mxCell id="0Z_G-xEnXc7bXnKemrVB-605" value="" style="shape=image;verticalLabelPosition=bottom;labelBackgroundColor=default;verticalAlign=top;aspect=fixed;imageAspect=0;image=https://clasense4.wordpress.com/wp-content/uploads/2015/11/scrapy-big-logo.png;" vertex="1" parent="0Z_G-xEnXc7bXnKemrVB-617">
          <mxGeometry x="362.9966666666669" y="153.003333333334" width="200" height="255" as="geometry" />
        </mxCell>
        <mxCell id="0Z_G-xEnXc7bXnKemrVB-607" value="" style="shape=image;verticalLabelPosition=bottom;labelBackgroundColor=default;verticalAlign=top;aspect=fixed;imageAspect=0;image=https://cdn.freebiesupply.com/logos/large/2x/python-5-logo-png-transparent.png;" vertex="1" parent="0Z_G-xEnXc7bXnKemrVB-617">
          <mxGeometry x="77" y="175" width="205.86" height="205" as="geometry" />
        </mxCell>
        <mxCell id="0Z_G-xEnXc7bXnKemrVB-616" value="c" style="rounded=0;whiteSpace=wrap;html=1;strokeColor=none;" vertex="1" parent="0Z_G-xEnXc7bXnKemrVB-617">
          <mxGeometry x="109" y="43" width="435" height="60" as="geometry" />
        </mxCell>
        <mxCell id="0Z_G-xEnXc7bXnKemrVB-604" value="" style="shape=image;verticalLabelPosition=bottom;labelBackgroundColor=default;verticalAlign=top;aspect=fixed;imageAspect=0;image=https://upload.wikimedia.org/wikipedia/commons/7/70/Docker_logo.png;" vertex="1" parent="0Z_G-xEnXc7bXnKemrVB-617">
          <mxGeometry x="139.3" y="17" width="383.99" height="97" as="geometry" />
        </mxCell>
        <mxCell id="0Z_G-xEnXc7bXnKemrVB-619" value="" style="group;strokeColor=none;" vertex="1" connectable="0" parent="1">
          <mxGeometry x="-390" y="1620" width="530" height="430" as="geometry" />
        </mxCell>
        <mxCell id="0Z_G-xEnXc7bXnKemrVB-614" value="" style="rounded=1;whiteSpace=wrap;html=1;fillColor=none;fontColor=#333333;strokeColor=#14213D;strokeWidth=6;" vertex="1" parent="0Z_G-xEnXc7bXnKemrVB-619">
          <mxGeometry width="532" height="432" as="geometry" />
        </mxCell>
        <mxCell id="0Z_G-xEnXc7bXnKemrVB-602" value="" style="shape=image;verticalLabelPosition=bottom;labelBackgroundColor=default;verticalAlign=top;aspect=fixed;imageAspect=0;image=https://cdn-icons-png.flaticon.com/512/3518/3518559.png;" vertex="1" parent="0Z_G-xEnXc7bXnKemrVB-619">
          <mxGeometry x="145" y="41" width="242" height="242" as="geometry" />
        </mxCell>
        <mxCell id="0Z_G-xEnXc7bXnKemrVB-610" value="" style="shape=image;verticalLabelPosition=bottom;labelBackgroundColor=default;verticalAlign=top;aspect=fixed;imageAspect=0;image=data:image/webp,UklGRjJSAABXRUJQVlA4WAoAAAA4AAAAYwMA2wAASUNDUKgBAAAAAAGobGNtcwIQAABtbnRyUkdCIFhZWiAH3AABABkAAwApADlhY3NwQVBQTAAAAAAAAAAAAAAAAAAAAAAAAAAAAAAAAAAA9tYAAQAAAADTLWxjbXMAAAAAAAAAAAAAAAAAAAAAAAAAAAAAAAAAAAAAAAAAAAAAAAAAAAAAAAAAAAAAAAlkZXNjAAAA8AAAAF9jcHJ0AAABTAAAAAx3dHB0AAABWAAAABRyWFlaAAABbAAAABRnWFlaAAABgAAAABRiWFlaAAABlAAAABRyVFJDAAABDAAAAEBnVFJDAAABDAAAAEBiVFJDAAABDAAAAEBkZXNjAAAAAAAAAAVjMmNpAAAAAAAAAAAAAAAAY3VydgAAAAAAAAAaAAAAywHJA2MFkghrC/YQPxVRGzQh8SmQMhg7kkYFUXdd7WtwegWJsZp8rGm/fdPD6TD//3RleHQAAAAAQ0MwAFhZWiAAAAAAAAD21gABAAAAANMtWFlaIAAAAAAAAG+iAAA49QAAA5BYWVogAAAAAAAAYpkAALeFAAAY2lhZWiAAAAAAAAAkoAAAD4QAALbPQUxQSGlGAAAB/yckSPD/eGtEpO7hD/s/1Xba/3vOzDoxJMHd20Bwd4cK0JYqVqAUhxYrUm+pO15B32jhDVSRoi0UtxACBYoFKxGCJCGy18y8Hn/stdfeZ59zdnM+XNfnHdH/CdD/+f///P9//v+/uDrn3PtUnA+h6Cucc2p2zrm+viJ4934R57z3qjtqzJiRqhu8d+59HS4EVS8+fud9jv3WDy+57H+u/Me99915yaWXXvLtbx322e3WDKougntfhgtBkhZbbc9vXv7g89Pm0dE5/3nm7vO/vNtKYyQp+PdZuOAkafndvnLls0a1xUajLMuYUkplWZaNRjKq0yO/O2b7sZLkw/smXCEpTDjxxucyQM4ppZzNMKOmGWY5p5RzBpj31LVHripJhXsfhPeSxuzw3aczYI2YrRmjw4aZYTmWAPnekzdzkvPu/Q2+kLTlrx4EyDEZZnSlYTlFA+be9a01JBXu/QvOS8sd/M8SLGYzw+hiw8xyCbz31z2WkLx7f0KQtPGZrwAxGmYMRCPHBDz5jVUl799/4Ly07Q3vQcxmmDFQDbOUYPrv1pWCe39BcNJufwLKhBkD3LAUoXHBRpL37yMI0vY3Gjllwxj4ZlhO8N6la0vF+wWCtN7lQDSMQdOwEub+cEXJvx/AOy3247lYMswYRM3ICV77suTd//MXpH2mQImZMciaYSXct40U/t8+L631R0gZMwZhg5Swn4+Wd/8PX5COfJOcMWNwNjMSPLOz5P9fPRe0/LUQDWPwNiNH8o9GKPy/eV76yCukDMagbliCB9eXHxKcc977QcF5H4L3A8o574b/gnQ6lIYx6Bs5MucgKQwBg6X3qhncgPl/AgsteQMkMIYAwyKcUSgMbmHEEkuss+tuhx35vQ/KDawgjd7w86eed+Zxn17RSX4gjBy9xDI773zM5nLDe0EbP01pmDEkmpEyty2pMHCKi6656qqrrmh9VeUVra+86qqr/+frD7+Tjeaz5QeSk1Y7/WmqF9y2/wi5Lgv62A0PPzXPMO7s07C+16dnEw1jyDSs5F8byw+YkfS//RFiNrOS38oNIC99bTpgCxqQgYd2kuu2a8gAidtHDOc56bhMxIwh1IySNz+sMFD63iDmea++VvnqGymlmOe9/lr1q3NztLnfe3A+VPxmIHktdgXw0onbjl3j4NshJjhYoavkz4yQzeLwnpdOh4QxtJoRyfvIDxDdR+RPq609fvz48WuvtgNmiXvX+8D45rVX+T0Z1te233ogMdCka2nw57Gq/PI88gK+r77ukjb7xuNgaVjPSb8jZ2yowYwEp8kNkHuInKSWS2MWuVmtjyORlpHkLyEOLK8fUvLKYiqcFJw+jyWOUOgyJ/Xt/RblcJ6XzicZxhBsJPia/MDZXoX33getglni1lEK3ntf6EMkpi+iotBZlAPKacIsGpyqQs1eiz1O5KCuU+jTSi/TGMZz0gUkw4YmIxtfkxsgvLGCnCQ5rVQ1QpVOa5GYOEJyOo84oILOoUzsqFAhFXeQ5+0k323y+sCrlMN3TrqAZBhDtJGNr8kPhH/C30aoshNLvQo3uqZzKQeS05JPUDJrffmqQpeTBsiarwzjOel8kmEM2UY2TpPvPndP4gyFDkkjboOL1Ann+sF1xGudd0jMXa/Oj2Hm2nLd5Zy81nq1n1x/uOGgn5MMYwgzMnxeoet0NxyiolNOV8MZcm14p0rfAedV6VxbQTtRWsmnFKqCjoYZa8jJh9oVLrT2dbxTs9daL7fhnA/eVXmnZuc74Z0qfZULtV1FqOmGLbxOI2eMId3IlB9X6LoNjv3uB+Q6JW10xPmfa8M7SStuspok11YhSUusP1KSb29nShJ/kqvy2nUur/apa70kjdtoTS+NepJGK1+orpekxTZYSpJvK0hS34TlJLmKdl3TMGjQPpAxhjgj8faGCt1WuxNO1RWR36iQtv7V5Dlz5/znyu0lV8tJ4/a/7MV33nvr/q8vJ9/WdiQz2FtFhVQstuF2krTBTtvv0HL7nRZpWnnn7Xdo3n7HLfqqvLTFL55657050286be2HajjJL7byxrsd8f3Lt1Ah7fzLx2e9N+uZ8zZVu0Ha/icPvzV79nPnbys5SavutP0OLbfbZRU5afHtdmi95DBF0DYlGWPINyLPryjfZT64/pAvXKtYco40/upEyzOc6gbpqH/T8tWd5Ot5rfoK2TKzdpbzFc1O0tPU3kpe+jOt560sJzlpyz8nWr4xg1jltMX5tzw0heajpPX+TMt0Yj0nbXMjrb8vqdC51P6F+oK+TM39VAxHeK00hYT1AkbJrV6uu2p3pGVT2eAkffwNYooxmUXjx/Ktgla4AVjw+usQS9Ju8rUkdxsRErOPkIKrcE7SyLehUcYylhleX7VpMpRljAsyDy8mJyd9fS7Mfu31t6ARwVJVodMBLMaSXfWFdygXlDFbLuGz8q2cdGoCpr06G4vGOXKFroOyEctYRmAfhUK/gtSIsVEyb2v5YQin8HciRk9oRM4cvDIf3RdgAZCMxNxNFKqCJrxCyZ27rbzyxx8ll0xdTb5WoYNJZiS4fj3JebUc8ZnznwLDeOfv39khSNKHfnofWOaNc7eQ5KTz4Z1fbLvSShse/wI5GTW+CeSMwXIn0zIZkVeWUksnXUpm6pfWXGGT30FKHCWvrX/6z0zGaDx29t7jJKd1v/6X98jGgus+XWg40utsSqxnMONAhcGpwYxL4Pajt5qw2XGTyEbJV1s4Lf8KC7hUzcs8RS45V66WpLuIGDnzzq9WlkILSYvvO49sHKCaI/acCTeMU/Xv4O3dVLnEuVBDWmTrnz5tWObFn5Jv/tL2m33o2y9iRuJw+VbnU/LSBDX/ipx4ZVk5adRmk0mR80ar0kmacC+8uoGGJ4MOIJvRKxqZeRsrDEqRxGv7qXL070lErlNLdyMNJo1S4dwoHUbMvL6MXC2njeZSAhZh9g+WlHxVEaR7SJmfa6SvCKP0GTLbq89LXt8mcoz6gnO+kE7FrEbzvtPIlrl7O1WO+RPJEjcoVHgdRjL7qEZ4V2iJd8mZQ1T4QvoOMfOgd0WT3AitMN34tnwxHOE1/m0SvQNG5KHRcoNRmXn2A3Leex804h5S5vFFKoIOIyb2UiHJa5N3yInd25DXh+cQDSMneOkoL18hBR1GTry4jFyFpBvhfidJXjthPF7Iqdk7/YZYxwf1PUnK/D7IO+99oTEvkhPPjlKz04pTaXCFgipvIpVcLC8Frfsu2fiwXIW8TsFmraug4cnbiFgPAUTOlR+USs5Voco+HUrMvLWMnOQ0djINHl9cTpLTis+RMie3I6dNnoRkGJbgnh0lX+G07ExyZj8VFU4blCXHyqv5Tkq+Iq/qQjtmYg05LflM0x7qU2Whr5IzU1aUk+T1YyLs1epcYuSuMXKS199IiUsUqhQmwR/kNBzp9U2iGb2kYcaHFAan38hVeW09i2ys3OT1SVLJb1VIkteYR5t+0JaCFvsNpIxhKcH3JN8kp99Rllypaq9zYfqaTV57kjPrybUI2i22M/bppk/KVTnthWVmrC8vSYu+QOLNRVQZ9A1i4tFxTU77kBNTlpFrCvosxgEKwxFemzTI9BYYiX+NlRvs1p3etFKTdCUxc6xGOO+9NPrxpuvak5d2ewBiNowEN46VbwraG8vMWUOuSeNehUsU1HQbJS8sVmvXDu1dZ0XIzNyoKejTkLhTvlnSd4mZN9eSb1rmP+TEwSqavK6Gl/o0TPkACaPHNIucLT/YbfBmnZGvkWnspMolVtzhDXLmdx2QcyqOfgVixsiR+8bISXIa/SQp8xV5SYWOwsqt5SWv9WZSclufWnfFshUbNhU6k5g4W5VutRWvJ2VeWFFOktd5lJE/qdlr/NzMaXLDEUEnkMzoOTDjQ/KD3PozWjltGjHSJSf87No/PvXMK1NnZsuRb3VC8tKy354KCcNKzqlQ0I/IicmS5NT3d7hXzYUOJ0auV3ctV0fuNmLmgVO+ftXVDz77/NSpCyxHHli8IujDmWw2QU5y+g559nj5YQivD7xNpgc1Eg/2yQ0VXp8FM9o+sTNyhbTieYlkYNiW8pKc1ktk0kcU5LUFJYfIS/L6BWXkXLkB4rT0EySMdv85skIKE0mJH8pL6nsGrpTTMKTTZUSsB8EscrzC0PE5MNL0qZXTpk2bPn3mS/8Y34ZzVZLz0o6TyIZFrlRQ5S2kknMV5HQmvLqCnCT5PxEj5w2gZSaTjHfemDZ16tSp06ZNmz59+tQnjlZQc9A3yYmnghT0CWBvhWEIr50wM3oSMjNWlhsigk4iZ2ZvpK51XqN+TzISz68gJynoEGJiytLyWnIG/ExBzcXNpJKzB4zXB6eSI99Wxz8wj4ztpcLrT/CIhiOddDexR8GInKMwRHjtC5nGh+X7Y8K6o2pIQbqTZJk5m8pL8lr9DVJiP/XpWJi/rXzVjaTI1arZZU7LPkVK/LpzuoFUcpEKbTgLTpEfhgg6iGT0qGbGe+vJDxWfBUucpKJzTmfSOF2ulYLWnYNl5m+hIElBVxAzf5WKu+Af8qqRuL1v4Cz9BClzf8eC9idm/rOi9D3SuyvKDUOobzIJ61HAIlfKDQ1OO0es5HKFzkm/hfvGyLWS19XkOl4fg8z8DbUrkX3k6mSmjJUbKKPvIRqzlu6U14ovkCJHaexL8Fs5DT8GHULG6F3N2FJ+SJCWnYUlXl5Zvh/ugLdWq+X0I1LmrfXlm6TiOXLi+7oQXlqyhdMFRDPWHygKuoLSjEMVOqNCFxAzD+gAjI8oDENoxBMko3c1En+QGyL0T7JFTlToh7sp+ZB8rR+TEo8vLlfh9C1i5N41ZsDpCqoM+hqlZU6Tr5O6qdDxZIvcG+Q647RjJrNgwp/gXg1HFjqMZL0MZsRt5IcEp28QMV4bJ9e52yk5Ta6G16WkyLkKqvTatEFmwV/n8+768q12j1jmyUKuRknJrX1d4rT+PMwS+6vojBQmkY07p8BRCsMPTiMfIdHTYJFLFLpt5X6JnfNa9z2yJc6XQgvv23mSyOUqWnktM51MYyO5Kkm3UhokbpJXtdNiL5As8yX1uSbfp12wyN1jukROt5LIvLiy+lq4UMvrVCIGvLm8hiGdPkrC6G0z764r31VBK1XcNsaFNlyhXxMjv1XhKoI2frNpNXlJXhdRmhk/lELw3hdeCvXCu2RmbaXCVQTpYlLkIjm1LHQM2SxnPlZDQT8nkpmzi3wRiiBtNImUeXkJhQqvpZ9p+rRCq5UqNlWQ5LU72Ug8vIJc4b0Phep7TZhDtlxyhtwwhNdN5F7HKPlul6ki8ld18gzKkrNVc+VpTaPV7LTOOyQMfvcBVa96wu1rydV5j5R4bUtJzknSN6HB/aPrOC0/g2yZ50ar9grTSSRmfUrN63w7xplY5iOqOblpZ9Xsa5qxqlpeT8OITPqwqhf70C1flGshp79SYqQdFIYfvLaYjxk9rhmvL6ZuHvuJMx/FzJh+2Ql7rFBvtf3OepWcefWc/VerWHr/60rMuPrIDSUp6ItYwjJvX3/yPp889Cc3vQx7KrRy+hHExKwfrSJJbsubSJGnVpVXTa9LSZR8Xb6O1/7kTII7fvLtH/11BhxwP8mY+o2NvJy01N7nz8WMe0768LiKpfe/HDPidQdu2CfJa+XXKCHCfT8++JP7ffXKx+GiOoW+gFnkTjkNPxY6g9LofYz95bvEaYM/TU8QU0oRKOc893n5Jq8tnp+dIaYUIc+7ZUXtcOPbYCmlBPNf219OXl+DmC0CGM0ny6n2dyGVMP+2s86+9KmSEm5eTl51nXYjZ96cUE/SqRBzMirtKF1PwwwWTDtGH791ZoKYUoLyrSu8Nr3lbUgpJYN5L39WXkEbv0HMljJgNN+0dB1pidfJxiEKww9Oy79Iove1xN+6Jug7tH1CldMPqP/6KvoN9Y+Sl6QD34JUNuY3ygRM2kttOu3yKJAzLV89vk9BbYx9ggZ/lld9pxNKsMbcBjDlE9L2EBvzG4lf6SbqP+50LvWPVJC8PngXUJbzF5QlMOv0UXKq6XQhiWlLaBjS6zNErPchM3cLhW458pmJk55oPWnSExM3kGuSTv33xElPtHzs+QtG6GcvPTrpiepJj720eYXTGue+SfXcR49YRL4NefV96oa3SpobM+85YlnJq81C36fBHm1J2uRPbwLMe+GXS8t5HfYuQGYvnf/cY5OeqJ408blvSj96ZuKkJ6onPTFxGzlJXsWRT1IdXztzHcmrrtd2LOAncsMQ0k1kemCj5Gvd0t1OnfXSmof9+vdX/v7Mo7eWFNR2kLTWXid//zvfP/6j60jyTu06XQiPF2rfS6vvc+rpx+wySvKS01pfOv17J++78Uh1q5fGfOyHV135+wu/9rGlJO/Uxv7k+RvLD0esMguzHgjLTBqtbnW+7RrOtym54OuGFnJeNb066p1aO+/UttNacxLHybcn51XtnSR5tXa+vpOcr99C8qrpndp0uh/+qOHIQieSjZ6IzDZyXTIousJLCoVXx13o6+vrK4JXbe8rCp0NU9foiORCX18R1NIVfX19waurQyHJ9wWnls5X9OlTGPspDEN4/YXYG2GZX8oPHQO38M6P0HpzjPMUNGT64FyfdD88NULDkF7rvUWmR0pMlutpvA7+3rJqXvVRbNZ4uSHBadNzN1az/w0LOER+GCLo85RmPVJmznYKPYzX+Dm8dMZnt9z921NZwHnyGiLvZtbvD9lh26MepMGk0XLDENLFJHpks8jJKnoYp+8yH1gQocHs1eSGBKediEBjAcTEgSo0HDnidcx6JIhcp972enJKQEqJL8trSAw6HsvRIKeSazUs6bQ5GL2yZV5ZRq53cbqI0sws58g1Giq9Pk8yM8u55IWV5IYjgk4j905YYiv53sVrh0QqG8ngWi9Xz4cQ3OAkjX2KHBvR4MU1FTQ88VdiD0XiVLneRU6fnUnz1K9KXnW9KoMblJzGT6T5vcuWU9BwpNO4f5HonS3z14Hiqgc7OS1/7PmXfnufcZJTTSe5zT+0+27LSX4wktOIz551+c+/uLbkNdi7lgtZgraeTbbeicxLI9T9LhRO1b4vuEFNTtVedZ108IPvWE7PX7amBmenauc0mLtQFE41i77gF5oU+jzR6KlmbSDXVc47NY9cfsUVVlymULPzg5gU+vqKoNpOi/6Jlm/vLz8YSb7oK4LToO28U3Wx7IorrLjCSsuopfNuYYjX9ynppc34gkIXuSDJb3PKRTff++xz/37+qbv+dM7R60lSMYi17zTqJlLMZpYifFZhUBrcXSFJIzc/5EeX3nzX088999y/n//XHbdfdc5JH15Oknyx8EO6jmQ9VeR09XWPlxbf44LXF1B/7rO/2EJybsgI+hoNMzPMiLy6snxv5bzUt/ExN705l/bLWU+c9fGVJHm3sGPRx8j01CWXy3dLkMaeNgkglzGm5lhGA7jhc5JzQ4PT2GdIGM1Gg9MUeqkgabWv35kBLJUxpuoYy5hpfv3yz3opLNRwWno+1lNZ5O7Rct0RpMOmQEw555RiTCmbYWY5Gdy+k+SHiPVJGC0i16uHdl7a5Mq3wWLOVhszzMxyisDk4xaRcws1NsB6KxLPr9QlQWvdAilhkZrRMAyLBr9YRG5o+BzZaGmJW4reKUhb3ADEaJBjNKpTGTNmgJnl0mDyZ7Uw02lfco+VmbO+fDc47fg2MRs5wyvXfPfII0654gWwjJkZluDRzeWGhI+QsDq39kzOaaULS3LKhuUSoDHnvffmNGgus5kZmGE5wp/XkFto4XViz2WRbRS6wOvgkhIjwV8/NlKVbu+/QTIMDGswSX5I+ADZWhiRK9Qje+nAqRANI2WYc+t5h+68zoQJa+/w2W/8z/1zwZJhAGbEkj8u1Di75yKyr3z/BX0CIkbk3S9IkvPeSdKnXyIZBkbi6SFi9P1ErMnMSo5W0RN5jTofYsYgwjMnbqzaozc57nFIhhmAUfJXLbz0uprUY1nkmC4I2uo9Ekbi1XWloJZBWvIvZAOwxD+GBAUdQTQMzIhMWUmuFwpa7UFSxoycmHrEKElF8M45531RSCr2nggZMwAr+Z2KhRZB9/ZcJH4s119eSz9PxMg0dlGfagfpMpI1Za7ulHNyg4nkbqSRMYMIn1FQDxy09hRKw4wMVy4nea/aLnhp5OmZRAUNzlJfj+DkepDHSPRcv1O/O51PiWGJc1SoTa9wH9kq/qdDToOt0/KPQswpJThMQT1w0PgplJgZCY6TCnUySJ9OZJotcaKKnsCpJx31DMl6rkv7zWtXsjXx7qpy7ajQ7iQqvt6ZoA2vueK6/eQGD3mN++Ucmv+5m5x64KDxL1JiGJnyE3JenXVBnywxa8ocqdALeC1/yZXXn9BjOC07hUyPnbmr35zuJmFY4np10GtdslV8rSNeiz0JnDOoyEsf+PyPfvqVHQt59cBeiz1KiZmRiZ9Qoc4HnUyiibiXfA/gpBuAm3uOpV/qxe7pr0K7Y2ZAyRfk23Na/U1yxWfl2nPSX1iwgJ8MLnJe1UE9sbuJBoZhxhdVqB+9Pki2ink79Ahn0pjPNT3Hki+Seq9/9pfT7ygxsMR2Cp1YYhKp4uOd8PoJ0RI/G2Qk551z3qkX9voZkYrEr+TVn07LTCEbZN76oNzQF3QY2RLX9Rwrv0b+b8Np3GtkAzLvbSzfnhRuIFrTJh0I+grZGIx66KCPgmEYkbuDXL9IfTcTK/6zhIb+QntDpvfw2vLd/0a2J1vV3M54XUBpkFm9vaADIGP/zTktNYWIYWbM21xB/ev1K0qaXpQf8gpt9y4J60W2mf3fh9e3yEZ/9Ol7NMCYt3JbhXaKZIz/5rx+Q8TASPxAQf1c6GiiNT0sN9QFrTmVhNGLrDP9v5GLary3UUcKHUUyMlOWaqfQjrNJ2H91XtsaZgZk/r20XH8F7TiP3PTnIa/QGi8SsV7EaamXSP993EeqsMiHFDoQtEdJ05Nj2yi03WwSZvwX5+TvJpqBWeQrKtTfTqu+SjYy5w91Qau/QMKMnmTpl8i91939NplEZeTHch3w2uQtsiVu7VPtQtvPImHGQHKhKIrgBhnnvXfd59wACTqAZAZY5o1V5PtNTpNIkPhRPznnvXcDyHnvXf8UWuMFImYMJBeKoq9w/eac9979N3R/v00iWZNlni/UQadlX6aRGtxU1ArafhYRM7rKOe9rBVX7zrn+c97Vc75wqiy86xrnQ58kV4Tguk/FIyQqEr9RUP8HXUYyEl/sDx+CKkNwXeG8q+d8oUpX+M4FrfECETO6y3lfK6ja94sPXpUhuK5a6iVS7/WXrsGMw1W0J68naP6tXCvntcu7JIzKxM9VhNo++DrO+RC8U7Vr5aUlP3rY4UfuOVZyLZz3PoTgfZXkO+OcD8E7VbpWLqh5sfETxi+hZt8Nwaly0TGqDq6rvA4kYzQZ28p1gddxZLPEZzrlgppHLj9hwmojJcm7TjnnQ/BNklwr79U8bp0JHxgrSc53Jmid54mYUXW996HdWs6H4F1Ts2vhpVG7fPHwIz+9vOQ75IKaR60wYcKqIyTJu26R10SS9ViJ8/ptMomqxMvLy7cnrbfnkT+5cNIpNZzXwZmE1fiBOu1DEdRyxOjVdzr8ILV0Gvvt52h+/ruFXFVt3zd6kTVXlmvH+VAEtRyxyFqf2Vq+Kkh+/HH/+8DkN6a98a+H/3jy6pLvN+elYtPTrvzbg5OfuPe2S7++8xhJRTc53UMyAMs8VqgbnXbHjMTm8h0Jkpb85Fm3Pf78tGmvPH7HD7cvJN+e86EvqOXIxdbZb135qiAVG371Tw/9a9q015988JqjV5BCJ4J2eJuEGS2uVqd9KAq17Bu10nYHHePkKrz6jplUArz66yXkOxIkLfWZc+54/IVp016eePv3tvGS75bQRM91jlw/3UmyKiLXSK4DbTvpFEiYUZ25fOOtt6q95VZbjK5oLpZdf8dPn/Crvzz+bjT4epXTR6eANRqNDH8dIVexyKqrb77Nxz998jcvvPKOx1+dzysbybVR2bfCejt++tRz/vTUnJJp4+UleWmZw+7P1C3/d1PJ94vz0iY/fobaMy/dZ4zkvffBe+9cfwV9yDAqS34g3x3LNEipZO2OeGnEXr+fRe2JhziFtipHrbThzvt8/Tc3/nteyeQl5SR5abUTnqT23PM/IOfacdI+c0mY0erOLbfcqvaWW249rqLZLTVhu08c+9NrH3kzGvyuT81BGz8KlI1GgokryLfnpdF7XzeH2g9/Xgpd4vUXkvVYkVP67dfkViR+KLn2fPCujlPxa0iY0dJIC9qcl6asKict99mTzrn+H0/NpHXkuaXlJK/DICYzw1LkIklem9760AtT5kZqGlNGqv4ym33ulLOvvfuZN2m5gM+rkLzCSS8CFmPKOacYM6TvSb4fvDThmnlAjo1GTDGmDPDYsUFd63QuJdZkmb0UukEaPRFgzqpybTkvf/D9gKWYUs4pxQz8c2v5Nlbc6oCv/uYP9z73Ni1LtpSX81r0B9OAHGPKOacYDWYdK7k2pK8bETNaGmlBm/PLWdspSIt+4ktnXHPHpOmZlolZG8hLQR96l5SyGZYa/GOEXBvOqzjsYcBSTCnnlGIG7txUoVvOJ/dYFjlEvp+OJlNtZplvSb6tthe7g5wxo6bRbuaJJeWcfkq1lWVM2cwSjywhp6BTIWFmYFhmV7lC+1NZljGmlLOZGUvUcdp37lyqrYwxZcuWd1Rw0jaPQJnNDDMwzCzCnxaV61hQ33fnQMwpAViy5hTh4Z1XGb/+tjsddsTp51x69z9m/LZzTsvPxAzAEi+uJt8dbsKhP7n+sXuXbc9L298HKVo1hpnlSOOL8jWcTo5zqc5lTClb5p015by013PQyGaGAYaZlfBbJ1fPXQwJM2oa7RrTJ8h7HUHLsowpm1nm9bXlVejTEDEzMCxyRDte2vVhSMmqMcwsRebuK98l3+m5KNlBoV+c1slmVoFhxiUjFVx/eH3ILGPUNSy3WXJraLqZGMuYshlGc+TWPinoYEgYlUbiaoWgbzA/pWyGUW0sWLyO1+lAjmVM2QwDMm+urxHS9zIpYUZNM3LJH9TxoPH3QbQEvPXoXa8DGTMsJhr/eadB3f1VdOyzJCqI3CGnbh7r1G6Q+1kmR8PKBFYmwzAswhHydf4HsxzLmLJhBiSeXVZ9GvM7iAkzapqREmfX81pnJhGjrmG5zcgzS8sFnUOMZUzZDKM58cyyckE7zSZhVBqZR1Q/qO8syNGwMkEuk2EYVsKBCt1xUM9lljeT7xep758krMqwxP1bSKFfdpptMaUUM9Yqx1R/AdfISXqZbBg1reQaKWjbBhlrgSUmBzldTGmYUdMox9a7mGRmGC0t8ewK0rK3QjKMNg1LfEu+M0G7zyQaCfvDLssuPnrpjX9TkrDmDFDGGFNKOdH4sEKHvP5MNpotcpGKbnHeB6+2g1a/D5JBAhbMA1LGzIwEhyq0kG4nmRlGS4vcNdppwkRyBqNNwzKHKNT6wBTK1AzWIqc2GzzS13QH0TBqWuKRkQpa9XUi1gIz3l2uVtD4R7FkkID584FkmJmRYH+FLnDaAeuxMm+s2V9BXyZaFRiWWPDdkVLoh91pabQ02j9ffU7rzqeMhlmt36hPYyZSYrS2xFPjpDFPQo4Zs04F3c2CjBk1IneN0EZPEzM5xeZsWBVGZs768p0I+kiDEhIzPqKW275BxMCwnM0MAyzxhJw6PeYlMlWZkxS6pdK1E7T9K5QZLJGuOe5Duxz4w4cgYYaRKLeVbzWF0jCjRsll0m5TKY2cYowxZcOqMBIvLydXZ+13qDaj2mj/fgWnJV6kEbNhNSJ3yjv9kRKjpvH2eLlWQbtNpTSwROOqL+2220E/eRQSZhiJuZvKd8OqvZYlHl9Srn+clnyeZFaFYQkm7y151yGnFQ45/LDDDz/ioIvJVZmLDjri8NqHfnkreafNXzMgZjPDmmjwE43SD4kYdRNPj5HTR699G4jZDOuI/GNAmc2wKkr+qq3forRU0jImM7MmjJKLOxL0kQYRMjM2U3DOybmgDWeQMJoNi9nMIPN1+Q4FfXgBZlXYx+S7qt2gj8ylBCxz79aqHL3/myQMMyL3B7mqJacBMZthVTT4lT4ZiZYiLWM2M2vCrOSbCq2kxfc/8rDDDz/iCz8Dq0jccPARh9c+9NiPyjmtNBEgJjPDDCByo0bqCySrZcas1WsE7d0gApb5++aqXOQL75AwzCi5U3L9Jo17mdxblVwvp34OOoVIKzByhD9uJXnfkbr7kaoS+6h9J0mL7nXOAwmwVGWRU6UJ8zEwy2ZmYJb4k4IkLXv8zQuAjmnCabe9B+RomAEW+eHKs2gkYPbTf7/jzjsefBMsYdYEmTlry7cVtMk8EmaZAzRCLfu0u5GrMIAcsxnryHWo0ClEo0VjI7mBE7TZLCJmlrhScoX3RSFt9TbZALPI4QpV2vx7/yyBFA1rssjBW0KZgLcm33HnnXc8OgtyxqyCzMtj5Wq03rxVybfV4RE7/vTv7wGWjCZLXCI3dgoZzLIZBmaZJ9U6aLt5RMwscZHkCu+LQtpxDtkAs8gB8l3QdzvJeqzzVPSXNOphItYKw1Im/89aUnCd8c2FDqlzsArfplPL0Vscf/NcMCoyh0qXEI0cIZUZMyNxoLzknKSNv/kEGB2StP4x/5gPGM0GFzzKApj/h4PXX847p0XW/uwNkDBrMiLHtOe02CRKzBL3yKlmobNIZk0lPz54YgnM545CnXa6lJJWc8Zq4Hqt9CIRMyJXSEGVrk+fI2NgZP49SjX7Nj3loQgYFaQzX2YBvHv55yYs5ZxzY9c/6B5ImAEYiT3qOe+9D9qxVeQHKnybrkKS2+iwa98BjKqfSKcQjRyNXCYzMyKny1V5rfE6ETMiF0pBla5PXyBjYGQmB/W/05mU9FSZI7vAa5tEwlphZkSYf846knedqPT6Qp0D5dVZX0jSigfeTK4gfVKbzSFbgvwukDOU3B9UXTipb6d7SR1yhSSt+fWH5mBWYdAgXry2an/8NRLVlrldbXudQcTMjH3k6zit8BZVkQulCd+7YwYco6JDTks8RrJWs4qB46SbKTEj8g/Jq+4/SABG5mNyVa6QpPV/NGk+VpWhZPYvVlLtQ98lUYFlLpavU+m0fZ3vy6uzvpCkJT95JVhT5iQt/zzJEvAOkLMReX35Fk66ixIzIjdLXjXDAyQAM2N3uX4rdCSl9VS8t718vynoS6SMtQIzcoJ3f7icVAwoyQUvaVVS1byd9QvKbPz7hJ232PubT0EseXt9+SopeOl0yg5J8l6SfkpuwqDBk9tL8t45Sc4Hp1XuJ1mV8dZi7TitPx/DMKYvrvpe3yXSbKTxkrTu8T9YWa5ja75Npjoz2Q8crxOJZljmrQ+oUM2g/YgGYImrFaokF7wkdwW5CcMid68rKXjX5HyQNniORKvJar9LJHkvSfOrjEN0BNES0779oc33POk+iBE+Jq9Kr28QzSAxdRUF1Qw6lGgAlrhIRb8F7ZYw66Ey08epG51+hmXMWoFhVsK0L4+SdwOqOWiTqszb48e8QYJfLqLmUce+Ce/uIK+6Xj8ldq55hI6qMkjctIQKp9qF1ppBtiaMcnO5ekGXEs2wxPVqM2jDOWQDyHxNIXj1p9cmJKtxrwas0xqzyVR8S4Xqek2YQTaAxFOj5Fo0uz79mNRkWObiPhWqX2jbBmZNZKatJjdQJDktsaAKPqqHSZlrllOz+8zzwAFyqnRaZz6GYZmTVKjeJu+QDSDxaKF+d1r5BVJv9YBcd+hHEDGrARg5wcTPSN4NMK8NWk0btw8JO1oKwRdeWu2eyZvIq7bTT/rL6/gqLPPnQoXaLXQkiSrjIPlaXqu8TDKg5FT5enL6GxHAEvfKST74/vgEiRoPuAETdBkRw4w3l1F9p5H3EZssM2tbhVpy+mUVlvm1FNRuoR8RaTZj/m7y7e3QPdJirfJ6m0YyP5VC4YsgLXbta3vKqdrrOiKGGa8urvpOizxGarLMW5vK95e8/k7soSxzRnfISUeWRMOslmEW4eZNJN+RgwfEFP2ZyInyTpWFRi0ur647rhV5KxVq22nRp8hWkfmmQq1CBxDNwEo+rdBGoW+QDCAzbU059avT0SSrcb8GatCWC8gGRM6Uq6dC11PSZIkDVLTzixaZt1dSUNteq08nG4AZB6tob/sBkUb+kAWcJ3lVBrml5VQdtGMmGxD5vnw9FfobkSbL7K2i34LOJvVQJPaW7wo5r52fIyXMagBmRCN+p1BwHfjiAEg8MmIqXKzg1NJLXgMn09heoT0F/ZwGFYnvtOF0HhHASNu35bXDfJrMiHso9NcvSQwCTudRYphldlFo6yyi0dzga/0xYw259uT1B0oqMod0YidsALzbdy/cJTm19JJXS6f/ocQwy2zRgQtJRnOD47rA61NY72TGvNXlukPyWvYaiIZZHcywBA9tJrl2nH44AIxZkzMvjJNTTec0oMrtOlLoU2SriFyiopZG3E0yILNg67akpd6pwCLHqeivn9V7wA0QpxXewQxIPLmMXBtB3yZXWMk5cp17c/WOFDqZZBUl31JfO15fHBDl4w3mrCuvuk4tndZ4DzMg8chYuTaCftLCSn4q32/ScrMx65kS94zpHgXpsDfJybA6YIZF5p8o+bZ+NQAwiByioH4dDLw2mUluouQ69dVb5F9kKhrbdEAvkpto8A319dfl5Dr3aoB6nUDCwEquUlBbp5OqIhd1nddekQoa/KQTx5K7DoPEzxXUWa+vkTCwkgsU1NbPW0XOkesC3U7umWjwExXqXue05lUQM2Z1wLAI14xTaOcXA8CwBk8uLjfYOa3wIqnJSq5pZ6k5WH/cWWUNvt5/t9V7sRggTveSDLDEt1S0990WJP7Wpy5z2mh2lTX4USeOrvO9bjGsZOba8h2SJpINsMRJKjpH4k9O/e/1VSI9shl5L4UukoL00UmQsmF1MCMn7l1NoXMHdQtY4gcqNPgt+q8q2nJajlbzt+rEHVV0xd/qGLPDwPDa8B0yTaSPy9dyzvXp9Dp3juy+1d4iN9F/P5DrDrDEtQrqrNeWc1uw4EPytZxzffVuDF0QtHU2s96IxJQl5bpK3mv0CTMgGlYHDCt5Znn5ju3TRSzYRm4IGPtMp6Sxr5GbLLN7J26vsgan9t+t9eauIjcQCn2JaFbx3qbyznkfiqKvUPX5xIG05ttdUvIt+a7J7CfXoUKnEQ0g88568s55XxR9fYWqryJ2ldOijxHpjS3xewV1e5BWPm8OlgyzOmaU3D1SrjORzbon85r6fbAbM5lsACWHdOLvFWbGvir663ekOnG7geF1ISXNmZnLqf7oRZZeY4V7iVRGrtag1eDzKrqGvELHnK6ipOo/S6j+6EWWWX3lx0hURi5RNxY6g2i9EZk95bpOLkjrXwlEw1qBQclv5Du1UfckrpIb2nQ9qckiZ8m191IFmXc2ke+vX9QyviA/AJzG3E2yqtelscuste32+x10ynd+dtWV/7j3XzNmY1iTlfxGbvDar3sS941Uh53GPkSyquekcct8cNsd9j/otO/8/Kor77r3mRlzMKzJSn4p1wVeO2TMeiEz3lhqIEguSJv9AWIGsxaYWeYTCh3auJtOGuKCTqXEwDLPjlDbo97EAEtMUn87/ahW4gcqBsRq08kVRvnEE1Nenf7eXGobRmXJjxQGr/27J/Ibddpr/NvkCqMxafKUV6e/N5fahlFZ8g2FLpD8U+ReyCj5jZwGZnDSnndDzNQAIk8sIjfAInvKD3G7YWaAwc5y9Zy2nNdkJL4n309eh5CsBZG/KQwAr/VIRqXR0nLZaJRlSinnVlZyjPp6gJKvKHRsC6JRabS0XDbKWKaUcjarspKDVXSD01dJWA9kmb0VBojkncLhr0DCrJUROUp+wG0xxEn+QaIZWOI6hXpBXyIbhjF3Lbl++zCRlpZ4Ykm5gbAHiUrDUko552wdzYlPq+gBGnxBRcc+Q6TSsJRSzjlbR1NmD4Vu8Fp3HtYLJSYvKjdgpCAt+zsjGlYj80SfBtzWQ13QCSQMyDR2VFHL6w+UYFbyMzn12wZka5WZv5VC9zkdTLIKjH5+a135nuDQfjiaZBUY/Tx1LflukPRHSnpes8TPFDSQXZB2+hfJsCrMYBe5gbbVUCeNeoyEYUQeX0S+RtCGc8lmRF5cQr6/nFZ6hWxVWMmXB4LXgSQ6FOuXzz53nVebQ9YX++EIIh2KtVPj6ReuUJcWOgAz632Y9wG5ASU5rzFXkw2rwhJnquj1vHbDMmZG5AoptHBelxExMuWHFdR/Y+4mtSJxswag03daZe7fZoftW++w5VLjlqg9elSfehynn5CqMv/YcsftW++wxZLjlqg7bvSoolukvqfJvY6RuFbd6QvvOiYV0u9IhlUR+adcryevX1FihlniUqnPS84X0lFkjJw5WV79H3Q2DVqaMW+NAfHLOpPU3T3Ir+s8oMHR6yskrMexzIcVusGpOfhOyUsXkMAqLPHCqvK9nlPfnZRghmWuX0GSl+ROyWQjZ34gpy4sdDjJrArLfENhABxb580gV7cHO7nOq/Ku7sBxWnEGmR4nck8h1wVemxy0+SrqTy/dQrIqMnO2Uuj15LXUv2kYZljiP6dsVGiRDQ7/O2Qswo/UnU7rziTTKvG4V9d7HdDKePcDcurinsPrcGKr6avKaTD0OoMS62XMjH0U1IVBv2Pm60/d/fOxch1S0ErTyS0M2+2/AAWt8gxlxgwSvPP0xOdmQjLLkXlHybmukNODJGtlxsdVdJvTwSRrEfeQ7+mOJlmFMX8X+UFi7XfIvYyRecapS6/CgLitQqcUdAKJ6kza5b8Bea14O5hhRo40p5hjhn9sLKcu9foWmVZEblDXe+1OoirxDRU93SeIVCVOVDEoKOjXJKyXiRwm3xVOV9LIaQGHquiY05LTsf8yFDTqyKeMnMzMckopxRJ44UtOQd3qNH4+ZlWYZXaT77r1SVZByfXyPd1WRKug5DKFwcFpzXkY1rMQeWCkXFdI/0s0Ss6S75ikK4lVZuz+34Er5L78Ls3WDDDz74eMkby6+Xoi1oLMvV5d7rTKG+QKS7y4snwv98GZ5ApLPL2M3KAgp58TexczYx8V6kanRe4hYYlbR6jzhb5Coyrz1sbyndik1wrSvv/CeOO2aVTOe+ryL28gyTt1cdCnMKOlWeLLKrpt7CMkq7DIpxR6N6dlniRZhSV2lx8cvFZ4jdSrGIl71aVOiz/UlJm2tFzH+nRMC0v8e0W5TmzQY3mtcD2U5F21xLKb77bzrmuPGyPJB3W3U99jJGsBmZnryHePk+R0GSXVif+VG6L2GQzkdB0l1YmL5QYHBZ1CwnoSwzK7yHfLYveTgMym/VDo2BZE7pRXi5+1SuzaW3l95HVSShwhp5rBq+u9DiVhLYzE/UGuS7zkpEKnEs2azJg7Xm4IORKrKjlGYRAodDrRKsx4ezW5wUEKk0lYb1JyuZy6Zbl/N1nmyH75UgtLnK2i1QV1DuqpvA41SiI3yEmuUgO1byIJa2FELpVcVwSN2EVS0C7zyBVY4gIVQ8hXyVWR78sNAkF7lFRhkTNVDBJenyQbPUlm5gflu2aNmeSKS+U75vVTyiYz2F2uSrqZ3OoUud7J6zCIWGZXBQ3woD3J1gKwxI8l1wVBI66dvawkhWdILTKz11UYKoLOJbX6rfq7O6RRU8hWQWbmmvKDg5yuIpr1HGZEvqqgrll9RkXi8X5Q+DsJMMv8e6RaOp1Nqspc00N5fQESlnhhVbmBJqfLiJhVGZb5qeT7yzmt9yB8V4W8ziGbVRC5Un6o8DqeXJV5qG9Q8LqQjDUZkQsHDa8PziRjPQeRe9S9TmvMbCIzbXW5DjmtE7EmSk6Ur/HzOi86tetcr+K12TwSRuLlVeUHgeVeJtECIxv/06eiX5yXDn+bBTyzhLzTRmQqMMt8RsWQcVQrY8HybTk3EJy2JlVhZuypYnBQ0OEkw3oLs0zaRqFrvDYiG5gRd1PoUKEzSYCRmL5KrV+QrMIod1WoF1S/p5D+QomBZT6rvuAGmIL2xjJWhWGJf35QCp0rpNX/F5JFviQvuVuJWAWZ6WsqDBVH18gcrlDPS25A9P2TiFWQeHUlhcFB0l+IPYYZkR/Kq4s2JwJY5Hx515FCG8whG2YWOUGFahxbI3KVvKvhvZZfukdxWjNhZkDmjd3V2tX33ruukdd3iYa1MCwy43DJe9cJ76VFT5uFZazkDDkFHUCyCozIg+MUOuL8YOP0UaxF4iHJ1/BBi6+sAaBCR5CsAiNy1yIKHXG+67zWnEHGegoiD3h1sdfGJAMw4yiFTgSNeIyIYSQecarp9Ski1QYHS33eSfKFpN1fP0uuR/koZgYYmXzl5zfwFR10hesSSZcRDasAwyLcspOkIrThCieNOvIpSIaV3DFWTk59j5JaEblnSQXflivU/iCwIVRhmdOlPu8k+ULSBk/8dUA4jf4XqRWR2xdTcG25QgMw6LNkw3oHIzN3Q/mu2o1kBkam8RnJtxWk64mYGYnZm8jX2pBs1mRk4jGS5L0kv/n/wisjVWujOtuocM65fnBBP62zhFwHgo6vs72Kjoyr878aUW97zGgyMjB7xrO33XbbbRf+4oxftTzjZ4fvuf5ykrzrDid3OdEwq8CMHOHmnReR5F1r7ySt8dUXIBpY5PZRcpK89iSbGYAZkae2lIJzrZxzQer78IOfk6vl9cs6a8p3ZK06P9aIdqSx72DWZBj8aJQk7yVpnfPm01hDrpXT2DqHaYRzznVGXp8hYQZgRmTixlJwrpVzLkgj93r4Y3LdJaffEq13MLPEMQrqqiMoMQMjwTclH+q4Qlr0LyTMjGwcoKCaTss9R67AyPD3L228pLTIZsfdBhY5RKHCheA0vs5GqvZF4V17vgiSvk/ZojFCUhF8HReCdFSdzSVf+HquCBrxrxpXybkiuFbLL8AMwAwrjU4/c8WRS0mhK+TlLidlWoBhEXj4B7sF1V7n8KtmQ04YKXPLaAU1O11NSUVzZMFZq0qSq1TzSsfcDbfLt3JFkH5SY8byki98PVd4rfhWjdPlfeFdvXAnuQIjGxNP22o5acR6h143Hxr8QL7ChcKpqHOAql1RBO/akfQXSiowLDL35ytKkmtW5apfvg/+otB1izxExKw3MCNyhZy6a0tImIGR4cZ1JO+dk5zzQdLu/yYbZmTjBDnVdrqGEmvCsARvvzL5qRffBUuW2Vdecj5I8mO/2Mp49Hff2HuDFRZzqvS1XPCSwjLb3k5qYYevNU6SXHBNzgdJI5Y9r4WRTlx6jCQFX+V8kDRqp6nkisg/VxonSYVvkvruJWE0G2aWK1Ob0YBXf7iMfFfISz+HhFkVhllOsOCFG3+2317rr7bGzp859eJJM4GYDbMI5zh5VXot/yIRsyaDBDMu2HGZMarsGzv+i398AyLzt5Vvct5LGrXKH8gVxuz9lxopScFXOR8kjfnsfKwicvXSi0tS4Wt4fZcSa8KwBLNfe+rJ52cCySLfbHI+SNLY3VOLzLOXnL7PZiuO9ar07Xit+hoRMwCDBFN/s93So1XZN26dI/4yFSKzN5XvLnltMItMr0DkidFdJqf9IIKBkROzfrGRao7a6w8QDTMi/FjtFvoyyaowLCYqUzQrOVtOlUt/5LTrZpJpaTS/98j1vzz+c1uv5tXuWnt+/c/Twag24Nnfn7TH6qq55B5f/9t7ZKrNmP+Psw7eOKjusp8+axIY1QaTzz98u7GqDjqU0qo6boalMsGrH5bvCnnpyAXEjFkFYFgqaTeXGTNSYvZhklfLoF0iiQowcgSm3XP+Oeedd84FNz8DkGLEPqTQJGn5T37vrpJMtcGsW3627wTVXvWA3/0bjOqMPXT2QVuOUt2gXclWhRkpUplLo8FNarnozsdf/gpmVBvNjSf/fPbJ++245ki1HbSHkagAI0fgjbt/e855551z0d/+DZBipNyh6xT0OchYD2BG4u11FNTlTvtkopkZhiWYdfe3PjJ+iSVX3/nwy/4FORtmRDhOcm04rTCVbFaBGZZzSjkbVvInNY3a7JS/vJiBjFUZOeWcqZzz8rPnyLdyu551/+sA2bAKw7IBvPbgxft6acR6x934PEDGrMkgA8ycfO1xqze5tY6/4UUgG1ZhmAHvPXfDKWvKSU7hThqY9QdghuUIe8h3hZzT5g9BxMyqwDDLKdc2zMxKuGO8nFPNoE9GEmZNGJZzpqblnC3C5+UlafRmX719CkDGKgzLANMev/ywZZv8+l+77TUgG1ZhmAHvPn3dMcvLVTn1PUQ0qwDDck4pZ4OSiYvLS30Tjrnm2QVABqswcso5Uznv9Weu9+0oaH9ImDVhWM6ZmpZztoh9Wl5d7/VtkmE9ABk+rqCuD9rlBXIyDDMsAlhKBmDRMCxlpn1M3qldr59RYlbR2owc+VOQk9PFNJfRsBpmZliKZSMDf2nltNRswMpomFWBYTk2DHh6pNP1AFYmw4wKMyyVEeAQBa9vAOQyG9bCsFxGgG8pSPJa8xXKjFm/gJkRmbmKXFdIXiN/2CDHjFkVYFhtzMgJ/nOkU1D9oE9momFNYGbkFMuyLGPKhuXIO3vLqflhgFwmw1qYYalMADvIS78FSGU2sxaGpTICHKxQpaDDSIZVtTTDSh5bWl5e36C5jBmzVmZmWI5lIwH/Uvte+0M0rAnMjJxiWZZlTNmwHJnxETkNQKfLiYYNdWaWOFlBAzBomUshJQwzLKdsNFtKhhkpwZ9XVVAnx/2LEjOrYWZEuKaQl6RnSSmZYXTQMMuRH9XZmBSzGUabhllewF3yY14gpmSGUd+wHJPtqhD0R2JKhlHbDMspcoC8JHmt8yQYWJtYG2BGycUKXSIvbXEdUBqGVdU2MyOXMPuMVSWvdoM+PpOYMTPaNDOshH+urSDJaaX3SCkZZtQ3LEeb9cGmx4gpGUZtMyxHm7eLfAtJN1NiZjUMIxn3LqMgFbqBMqVsGB00w3Lk6g4o6HPvEg0zo03DsBLuWFNBA8PfQonZ0GZY5AwN0CB9fCKknA0zrCaWU87w6KekoE56bfYWpRlWZVhOifLbkpOkRaYRU/9GjqrzaWLqfMkV0hqvUKZOl0xZS97rARqp07ncQa5JXkucOwMjp5zazTmbYVWYJf6zunyXSEHa47YScs5mWD3DLOcMb5+3hhTUwaDx/4SUDatlmOUEM0/rU1DFlnMspk43eGicnIrXmzobmTFerpXTCs9QZsOqDLOc4Pw+eUlOD9BI/dvg53LtKWi9ByFlw2oZZjnBtBO9ggam1/KPETEb2ixyreQGhrzTiC8+DuRGzIYBhuVUlgD3f95LXp312vx5KJNhZliOJXDHdpKT5LS50f97ylV5/YD+PV3anX59YqS8lnid/lylheuTfk1MdDaX0TBrwixyoIqukZe03W/eBCjLlA1rMiynsgR4+btrS86ro0HutFkQo2FVZlgqDd47ay3JqznoEPr1L5LX+Eg/zhijul6r3gtlNMMMy7EEJn5S8pKcVniD/j9BvgMKKr41F2I0rMoMS6XBrJ+vJnkN1KDlnyNiNnQZlFwnOQ1YL4388LWvAVhMlRlg3r/P2raQvDrutdwlC4CUUooZaNz1ESmo2Wv7Rx6f2N9PfrDOd55+bGI/Tt5L+vATEzv/yItnKHiN/8fkxyZ2+ol7C1V6aaMbShJvXHn5FZdXX3HZ3ZMmTpw85T/vAZbBKig5W757JB+k5fb566sRIKfqmAEaL16y2zgpOHXaSyv/4g0gpVyZUgJ4/merSkHVQQc//djEjj/88gkqvLZ95PGJnX7s6T/K1ZHX6J++A6RKwB4/YISckySvNe+c/NjE/n3khd06Iy+tftZ0IKVcmVIC+PcPV5SCBnChDd4gYjZkQcm9o+U1gF2QtNwBZ94+JdPyrUeu+vquIyQF9aeXtvnFAwuonHLT93eQFNTTBoWvNyAxZV21v/TqOxx0+t+NBAZgiT95dXdwkpbZ6+uXPvIfar52/yVf++iikoJXPzovrXTS396jbnzgnM8sIjmvrnXqci9NOP3O2VT+586f7+WkoEHQeWm1U2+bR93GfWd9crTkvQZ00PrTiJgNTWaUPLiUvAa485JGrrD2FvsedOCBB26/3hpjJck79bML0mLjN9n74M9vt+6KQXJedX0X1nK+f50k378Vvl8rgla5BWJmwTYa4dsMTs0jNn+UbFQmbu3rMsk5L0ljV95go30PPvDAgz+96XorLSZJ3jn1s/NS8YE9Tr/8lhtvuvkvZ5y48/jFJHmn2s73Z3Bq9v3ajhSkkWttuOfBB+2y3iqjJHnV9f0fXKck56W+D+71vStuufGmm//8q+N3+uCikrzTQC+00TQiZkORYSUPLSOvge+KoDb7groxBNUsgnrcoF2mEDOR36pQ+875opCWeIJkLf5WdJ0kFwqnNl0RnLrRFWrXFxrsfaGaRdAg6gq1GwoNhoXWf4OI2ZBjhpX8ZayCBkfnfGvn1LXOe++89049b9AnjWgYaQ+FDlT36aNYq1v6BkKzc957573z3junLnbetfbeaSh0znvnvHdOg633rrX3ToNkobWmUxo25JAT1zh5LQz1+lAkYpaZtrxcx6TidSos8bcBs9C60PgXiYYNKWYkON/Ja2Go05IvEDEjM0X96u8jN1FyodzwggqtcCcpYzZ0GET4luS0UDToe5RmBpkX5PrlwQqzkiNUDDMoSOdjCbOhwrCSuQfKOS0UdRr3OInmzEvq1/BUVebN9eWHG+Slr0IEGxLMsMTzm8prIanXBiVmVTNWluuHRWZjYET+pKDhR+f18TcoM2aDnxkR/rKkghaWBm1HpNJIeyp0zGsPwzAzSzvIDUNIQcvdCgkzG9zMzEryqVLQQpRta5ScqaJjfbqEaBglv5bT8GSQfhiJmcHNsJR5emfJa+Gp18aYVZCZuqJChwpNeIeMUfLKUvLDFPLSjs9CxMwGKzMswgWLK2hhqtOqL5OtyUhcLvmOFNLfiRgZdlbQ8GXQ6F9BzJgNToYlePZTUtBCVncLkUoj8QvJe9eG817F1USMBIcoaDjTSzs/AKVhg5AZKRHPWFTeaSFroVNIZlVm/GEVSaEI3jX7UARJ2z5CMiPByQoa5vTSV2dgyTAbXAzLEf6+tRS00NVpmf+QMQDDMm/9YoMxqr/ErtdnEliEQ+U07Bmklc8BKw0bRMzIEZ79guS9FsJ6HUc0DMCwBOU9Zx/xkU2WW2nFFZffaI8Tf/s4kCBH5n5awyFSkDb5I8Rshg0KZliO8Mqpi0teC2svpzTMAMMsAZSz3pg2derUdyOQkplFuHcdeQ2Pei/tdQsQM2YDz7CY4c0fjZMKLax16rsWi4YBmGGxzLSOZTJyhPdOH6lCw6YuSDvdHKE0M8wGjjWnBK+evIrknRbeOoUzIEUzwwDDzHK1NZfQuHwDyWs4tZC0zf+8BRaTYTYwzMgxA48cN1YKTgt1nbT7XYCllM0wWhqWYwLmXLGZ5J2GWb2T1jntJaCMhplZdxlmlktg/rUfWUTyXgt7nZf2uOwdAGuUMVXHspEBXjh9I8l5DcP6Qgp7XfMakFMyw6xbzLCcssH8B769kqRCC4W9pCU/c+mjM2n3tbvP2rlP8l7DtN5LWvOQa+cCNGI2M+sCI8cyAzz0je0lKTgtLA6SFDbe6/DvnvvnG2+44YYbbr7yx8d+7IOS5LyGc12f5Mbue8NTGUgp55zNDLP2DDPLOeeUAKbf/bWNR0oKWsjsC1X60Fyo2QWnYV9fqHnvU66aSaXFshFTztYy55xSjGWZqJ5xyy/2+4AkhaCF0T4U3qmlL4LXMLFzQZJWWWevSyc9P4vWqZK6adYbj1z4pW1X6JMUvNP7L0Ofqjc+4Ju/OOvGR6bOblC54N1Z7z49+e4bLv35Vz6x8eKqDIXT+zWd9845VY5da92Ntq3caMK6E5ZferSqnXPe6f2fPhR9fepk6CuC1/tLnfc+VHrvvXNO/+f///P///n//88UAFZQOCAwCQAAsFAAnQEqZAPcAD45HIlEoiGIlEwQAcJaW7hd04AGdnXR+pP8+7Lv6R+Ov7sdtx4Z9mc4X9PvsX9Z/c/kR4AX4n/KP7v+UP5VcYVMZ+M3wBetf0z/J/cRzj/W/2AP4r/U/8bxkXoHsAfyr+uf5z7o/pR/k/9n/hfyy9n35j/fP+J/i/yV+wX+Rf0f/Xf2r96P8z8tnru/aP2Kf1YBeIVCyFNCO6o6UU0I7qjpRTQjuqOlFNCO6o6UU0I7qjpRTQjuqOlFNCO6o6UU0I7qjpRTQjuqOlFNCO6o6UU0I7qjpRTQjuqOlFM8uH7bNItTBnG2mDozpRTQjuqOlFNCO6o6UU0I7qjpRTQjuXVTF9qJBY0pdaB7CmhHdUdKKaEd1R0opoR3VHSimhGKWAdCOXMdza6DM9VrKiQOakMeBP2imhHdUdKKaEd1R0opoR3VHShiIVOHNhNFGDb4AiI5+zHEAPhP/RuL2imhHdUdKKaEd1R0opoR3VHQVkDwaZZUvY1ktqjJYEPH2dKQK46fw/sE9JzhXrNTtPLaFF8CftFNCO6o6UU0I7qjpRTQjrGzJgAlX9zvV94QEiUJvdiX9ZYpqJ8SE/Fo+/An7RTQjuqOlFNCO6o6UU0I7qI8S4wlOXniqA6+N+PLA2d3ZacEz4E/aKaEd1R0opoR3VHSimhHdUbiOt8i3uNqGTEz1kpUetqKaEd1R0opoR3VHSimhHdUdKKaEdZim7UCBzUcdUWTISBhKPc5fyzuqOlFNCO6o6UU0I7qjpRTQjuqFmbQGFp2uhzD+mKxu3onmECnfpP2JPXVHSimhHdUdKKaEd1R0opoR3VHSimeg7fPYU0I7qjpRTQjuqOlFNCO6o6UU0HAAP7/CFgAACWAbMfwIedWBAS0L3Lv9NGHrDgakjz+9u6to48jJ1EXsa/lT/ZVhXYj7gsROOBLegW3CO6Dg+xu40WSl7FkfEggVh5xrEBSWLN7cH40PwAWxrl3q7yHEinqQDRIjUgC2Rd68T5hqnpL/LuMWwAmrYVwY24AJVl1Wk0P/e3mFh+of7usGEQeTtQAcZpPEv10A4cqV+vGXufDe2yxDK7JkHNOL5MR4m9jOoX9C7IuVSk5UZqjsiqm1lzA7a5fI2tnVQG1a1mjlhYXtaLH/O6BLDXZ+G8XGtECPSUaK72Lq00+CrcYui3lxPEVTd5McF3GkxK239jih8rwo/lWSggdSVfM96zVq8ZRwxgPvc01mwLE4FGkCOR6MvjImDsQszr9HnXTqlfWzgCdT2D9kn/h0wIeWCgX1DhvsGG9G1261bXraa4ij4Kzn/AgpwqffdH/KySg4dX7g5+NjGbKLrnSMb6S3/3l72P0YK0h17ZkVdNjAvbydUlYHarKTCO9DdQH7duHOGvzTcKnEpoqN8alNGh45RJHc4qD9Ht4GGnAuaZMXNXdQ5aN5QovTGqt+n4wtKYrRj8Vr5WH3VJuIfxGJDIb9gGfwJcggJbvBp67fRj9VCsfJsIfqUs9PGOYzENQRIaC/gdVu/8lWBCaxicnGTosSXKSmM4GpLWgnzCc9KdWMJ6VAKdWN3ZqmM4u/vWNoCjTt379IdRTs4JEjr25lEuUD7H+s/oXreDFWu+3L7vN3sJJFpvYTEAdfYnAKHMYHQPSjBAQh2jYH/BU5Qkb73jWijg9kxItq9gPcaQjRqUZkCGrdEtDZNBZzoYmyeMotE4MZqXQAPP5ACxPL3wTjLyDGwWYXY1WoVy1MlntbFIZbqlsNcj32mfaJoloL2y6QVe4pkBOacogKaBradQrwZXUPbVhLvEtGxu3ct3560DUyFGagfqXdekhajXX23AMmI1FHgNYVWZ1pwyKTvNRwQg5tzgS+ojeUlFJACCpwf5Lvfs6e3GHuH+zuccLw4wNobWh2FAdXLbXavjehElFGpEE8HefpQYF3pD/fzSv3+uDseJedoDI6cLEg7+1NSeQKMge9n7HlVfyzcDK+FsWqZEdpu7FS0TE3PlPIEV5g2ghtj1lJGMg2qtZdKf78RJKWfuKakM7Zipi5OJq37sj2Ivea2kwIJazMQRwAraGGKwlSNS5eQVOXK8o3wB1reTSh9XTxKon8iM2lUj+eu2qBLyPbDj4cxVUPvw9hFlHNJWOOdLf01uPkp7vGkPpnrKKp8lr3l4OtlqP6Kd/0wWtVNoa3oO6KNMFwS6Z1Of1iu1fy6pv4l8wE1xMsLWqe7ikGNDCsSFgtei4Jm5+Q6YA+rVEw44EQ8jRVcsfDmLdjZMrOxM3wUz3B6OboN/Xt/D/HbRyzrBS4fMQNswTvbTOEYG7mPa8O2Br+UmFujaVd8avoOkG1e7kd3n7QpiTjoomIELFJ+xfSIOaXUD3aBi3tacBB2MInxSNVteOXoolttfMXVZUs9Mq/Mj6g9Dus/HTzfNqeqN1W4zmTNJKdjIIVz0ZmCmNzQdkl/IXW0C5B49IEQk1yEysLcybRgN9vFpftDsBN+9ehzf0085074FYCBMBQlYDAhUfxfqvUjhE71jbaibEgTTsVAMcvzlsEzmddEAoyzwxHgePQ2/JFmMNPBaKwh7i/2Avdo5VGCWtGCWxs+Ydc9SxCb4YzO911yEQJvJIUfSn7y+9O3D3vUjKfxxM1YGnnja3Qry5Lv9BOaiHuJiKvrncTWVqdD+WyhMybmYOefyo6aj8x8qMIX+9H7RB/0LfsHXciGhLMBVEDdRl5NqI3KDAgqNG8cqyU45U8aMGWK0t4nHz1dpdxZzGG1AciFyp09Zd+tMBNrl9ca8L8T7JdXjc8bq3aXrr332tNRRnZNyoMZn/yVL+EB9c7c8KDHWfClQ0o9kzQ+8E72z9P482ZjdFip8BbU8q4OXOysrsFDuxKNk0osk6y/Dex/JWUOBAY8BYlPUtLCmsbvGl4rPWz8KUW2EXbUUweVaceEoZkcmAaIMUJyKWiZ6jzUYPvMhZjwp9SjQlEGIqn84/KK5jtJ5+O7opBG/HWuw0ysYQ3/u4Q7iO9whldTMAlMxy1nS8yiD6PRU8HUiPvKuhuW96kW+DwhhYz/S4MKkKx2z2rsf7zq2i8tdkUhjZyhFdaVzksTml7k0YqyL/E+X/4ndrW+ZagcQVHuf7vcYjFhe31Zx1AAAAAAAARVhJRroAAABFeGlmAABJSSoACAAAAAYAEgEDAAEAAAABAAAAGgEFAAEAAABWAAAAGwEFAAEAAABeAAAAKAEDAAEAAAACAAAAEwIDAAEAAAABAAAAaYcEAAEAAABmAAAAAAAAAN+TBADoAwAA35MEAOgDAAAGAACQBwAEAAAAMDIxMAGRBwAEAAAAAQIDAACgBwAEAAAAMDEwMAGgAwABAAAA//8AAAKgBAABAAAAZAMAAAOgBAABAAAA3AAAAAAAAAA=;" vertex="1" parent="0Z_G-xEnXc7bXnKemrVB-619">
          <mxGeometry x="28.190000000000055" y="289" width="461.62" height="117" as="geometry" />
        </mxCell>
        <mxCell id="0Z_G-xEnXc7bXnKemrVB-620" value="" style="group" vertex="1" connectable="0" parent="1">
          <mxGeometry x="1502" y="1580" width="570" height="420" as="geometry" />
        </mxCell>
        <mxCell id="0Z_G-xEnXc7bXnKemrVB-621" value="" style="rounded=1;whiteSpace=wrap;html=1;fillColor=none;fontColor=#333333;strokeColor=#14213D;strokeWidth=6;" vertex="1" parent="0Z_G-xEnXc7bXnKemrVB-620">
          <mxGeometry x="-1" y="74.00417536534447" width="571.77" height="347.9958246346555" as="geometry" />
        </mxCell>
        <mxCell id="0Z_G-xEnXc7bXnKemrVB-624" value="c" style="rounded=0;whiteSpace=wrap;html=1;strokeColor=none;" vertex="1" parent="0Z_G-xEnXc7bXnKemrVB-620">
          <mxGeometry x="46.693081664098614" y="37.8830897703549" width="483.6698459167951" height="52.860125260960324" as="geometry" />
        </mxCell>
        <mxCell id="0Z_G-xEnXc7bXnKemrVB-608" value="" style="shape=image;verticalLabelPosition=bottom;labelBackgroundColor=default;verticalAlign=top;aspect=fixed;imageAspect=0;image=https://connect.redhat.com/s3api/prod-s3api/1629218071-logo-url-5e9872712989e6a90307acd6.png;" vertex="1" parent="0Z_G-xEnXc7bXnKemrVB-620">
          <mxGeometry x="63.47616101694915" y="30.835073068893525" width="442.3030440217404" height="72.24150903253204" as="geometry" />
        </mxCell>
        <mxCell id="0Z_G-xEnXc7bXnKemrVB-635" value="" style="group" vertex="1" connectable="0" parent="0Z_G-xEnXc7bXnKemrVB-620">
          <mxGeometry x="163" y="123.00218997361482" width="400.2006841152071" height="282.05977283634803" as="geometry" />
        </mxCell>
        <mxCell id="0Z_G-xEnXc7bXnKemrVB-626" value="" style="shape=image;verticalLabelPosition=bottom;labelBackgroundColor=default;verticalAlign=top;aspect=fixed;imageAspect=0;image=https://static.vecteezy.com/system/resources/thumbnails/029/345/981/small/database-icon-data-analytics-icon-monitoring-big-data-analysis-containing-database-free-png.png;" vertex="1" parent="0Z_G-xEnXc7bXnKemrVB-635">
          <mxGeometry x="64.72798971782436" width="256.84121745986295" height="256.84121745986295" as="geometry" />
        </mxCell>
        <mxCell id="0Z_G-xEnXc7bXnKemrVB-627" value="" style="shape=image;verticalLabelPosition=bottom;labelBackgroundColor=default;verticalAlign=top;aspect=fixed;imageAspect=0;image=https://www.pngarts.com/files/2/Download-Button-Free-PNG-Image.png;" vertex="1" parent="0Z_G-xEnXc7bXnKemrVB-635">
          <mxGeometry x="147.31015156390856" y="107.40774496364124" width="252.89053255129852" height="174.6520278727068" as="geometry" />
        </mxCell>
        <mxCell id="0Z_G-xEnXc7bXnKemrVB-634" value="" style="shape=image;verticalLabelPosition=bottom;labelBackgroundColor=default;verticalAlign=top;aspect=fixed;imageAspect=0;image=https://upload.wikimedia.org/wikipedia/commons/thumb/2/29/Postgresql_elephant.svg/1200px-Postgresql_elephant.svg.png;" vertex="1" parent="0Z_G-xEnXc7bXnKemrVB-620">
          <mxGeometry x="55" y="162" width="190.12" height="196" as="geometry" />
        </mxCell>
        <mxCell id="0Z_G-xEnXc7bXnKemrVB-638" value="&lt;h3 style=&quot;padding-top: 0px; padding-right: 0px; padding-left: 0px; margin-right: 35px; margin-left: 35px; margin-bottom: 14.04px;&quot;&gt;&lt;font style=&quot;color: light-dark(rgb(20, 33, 61), rgb(20, 33, 61)); font-size: 60px;&quot;&gt;Request&lt;/font&gt;&lt;/h3&gt;" style="text;html=1;align=center;verticalAlign=middle;resizable=0;points=[];autosize=1;strokeColor=none;fillColor=#E5E5E5;rounded=1;perimeterSpacing=0;" vertex="1" parent="1">
          <mxGeometry x="169" y="1452" width="325" height="112" as="geometry" />
        </mxCell>
        <mxCell id="0Z_G-xEnXc7bXnKemrVB-641" value="&lt;h3 style=&quot;margin-right: 35px; margin-bottom: 14.04px; margin-left: 35px;&quot;&gt;&lt;font style=&quot;color: light-dark(rgb(0, 0, 0), rgb(20, 33, 61)); font-size: 60px;&quot;&gt;Website&lt;/font&gt;&lt;/h3&gt;" style="text;html=1;align=center;verticalAlign=middle;resizable=0;points=[];autosize=1;strokeColor=none;fillColor=#FCA311;rounded=1;" vertex="1" parent="1">
          <mxGeometry x="-286" y="2091" width="317" height="112" as="geometry" />
        </mxCell>
        <mxCell id="0Z_G-xEnXc7bXnKemrVB-642" value="&lt;h3 style=&quot;margin-right: 35px; margin-left: 35px;&quot;&gt;&lt;font style=&quot;color: light-dark(rgb(0, 0, 0), rgb(20, 33, 61)); font-size: 60px;&quot;&gt;Database&lt;/font&gt;&lt;/h3&gt;" style="text;html=1;align=center;verticalAlign=middle;resizable=0;points=[];autosize=1;strokeColor=none;fillColor=#FCA311;rounded=1;" vertex="1" parent="1">
          <mxGeometry x="1609.5" y="2039" width="355" height="112" as="geometry" />
        </mxCell>
        <mxCell id="0Z_G-xEnXc7bXnKemrVB-645" value="" style="curved=1;endArrow=classic;html=1;rounded=0;entryX=1.003;entryY=0.274;entryDx=0;entryDy=0;entryPerimeter=0;exitX=0;exitY=0.25;exitDx=0;exitDy=0;strokeColor=light-dark(#14213D,#14213D);strokeWidth=7;flowAnimation=1;" edge="1" parent="1" source="0Z_G-xEnXc7bXnKemrVB-615" target="0Z_G-xEnXc7bXnKemrVB-614">
          <mxGeometry width="50" height="50" relative="1" as="geometry">
            <mxPoint x="772" y="2082" as="sourcePoint" />
            <mxPoint x="269" y="1788" as="targetPoint" />
            <Array as="points">
              <mxPoint x="338" y="1646" />
            </Array>
          </mxGeometry>
        </mxCell>
        <mxCell id="0Z_G-xEnXc7bXnKemrVB-647" value="" style="curved=1;endArrow=classic;html=1;rounded=0;entryX=0;entryY=0.75;entryDx=0;entryDy=0;exitX=1;exitY=0.75;exitDx=0;exitDy=0;strokeColor=light-dark(#14213D,#14213D);strokeWidth=7;flowAnimation=1;" edge="1" parent="1" source="0Z_G-xEnXc7bXnKemrVB-614" target="0Z_G-xEnXc7bXnKemrVB-615">
          <mxGeometry width="50" height="50" relative="1" as="geometry">
            <mxPoint x="633" y="1729" as="sourcePoint" />
            <mxPoint x="156" y="1751" as="targetPoint" />
            <Array as="points">
              <mxPoint x="337" y="1857" />
            </Array>
          </mxGeometry>
        </mxCell>
        <mxCell id="0Z_G-xEnXc7bXnKemrVB-648" value="" style="curved=1;endArrow=classic;html=1;rounded=0;entryX=0;entryY=0.5;entryDx=0;entryDy=0;exitX=1;exitY=0.5;exitDx=0;exitDy=0;strokeColor=light-dark(#14213D,#14213D);strokeWidth=7;flowAnimation=1;" edge="1" parent="1" source="0Z_G-xEnXc7bXnKemrVB-615" target="0Z_G-xEnXc7bXnKemrVB-621">
          <mxGeometry width="50" height="50" relative="1" as="geometry">
            <mxPoint x="1270" y="1845" as="sourcePoint" />
            <mxPoint x="1748" y="1831" as="targetPoint" />
            <Array as="points">
              <mxPoint x="1325" y="1749" />
            </Array>
          </mxGeometry>
        </mxCell>
        <mxCell id="0Z_G-xEnXc7bXnKemrVB-649" value="&lt;h3 style=&quot;padding-top: 0px; padding-right: 0px; padding-left: 0px; margin-right: 35px; margin-left: 35px; margin-bottom: 14.04px;&quot;&gt;&lt;font style=&quot;color: light-dark(rgb(20, 33, 61), rgb(20, 33, 61)); font-size: 60px;&quot;&gt;Response&lt;/font&gt;&lt;/h3&gt;" style="text;html=1;align=center;verticalAlign=middle;resizable=0;points=[];autosize=1;strokeColor=none;fillColor=#E5E5E5;rounded=1;perimeterSpacing=0;" vertex="1" parent="1">
          <mxGeometry x="137" y="2096" width="375" height="112" as="geometry" />
        </mxCell>
        <mxCell id="0Z_G-xEnXc7bXnKemrVB-650" value="&lt;h3 style=&quot;padding-top: 0px; padding-right: 0px; padding-left: 0px; margin-right: 35px; margin-left: 35px; margin-bottom: 14.04px;&quot;&gt;&lt;font style=&quot;color: light-dark(rgb(20, 33, 61), rgb(20, 33, 61)); font-size: 60px;&quot;&gt;Parse &amp;amp; Data&amp;nbsp;&lt;/font&gt;&lt;/h3&gt;&lt;h3 style=&quot;padding-top: 0px; padding-right: 0px; padding-left: 0px; margin-right: 35px; margin-left: 35px; margin-bottom: 14.04px;&quot;&gt;&lt;font style=&quot;color: light-dark(rgb(20, 33, 61), rgb(20, 33, 61)); font-size: 60px;&quot;&gt;Extracts from&lt;/font&gt;&lt;/h3&gt;&lt;h3 style=&quot;padding-top: 0px; padding-right: 0px; padding-left: 0px; margin-right: 35px; margin-left: 35px; margin-bottom: 14.04px;&quot;&gt;&lt;font style=&quot;color: light-dark(rgb(20, 33, 61), rgb(20, 33, 61)); font-size: 60px;&quot;&gt;&amp;nbsp;response&lt;/font&gt;&lt;/h3&gt;" style="text;html=1;align=center;verticalAlign=middle;resizable=0;points=[];autosize=1;strokeColor=none;fillColor=#E5E5E5;rounded=1;perimeterSpacing=0;" vertex="1" parent="1">
          <mxGeometry x="596.5" y="2064" width="475" height="284" as="geometry" />
        </mxCell>
        <mxCell id="0Z_G-xEnXc7bXnKemrVB-651" value="&lt;h3 style=&quot;padding-top: 0px; padding-right: 0px; padding-left: 0px; margin-right: 35px; margin-left: 35px; margin-bottom: 14.04px;&quot;&gt;&lt;font color=&quot;#14213d&quot;&gt;&lt;span style=&quot;font-size: 60px;&quot;&gt;Save the data&lt;/span&gt;&lt;/font&gt;&lt;/h3&gt;" style="text;html=1;align=center;verticalAlign=middle;resizable=0;points=[];autosize=1;strokeColor=none;fillColor=#E5E5E5;rounded=1;perimeterSpacing=0;" vertex="1" parent="1">
          <mxGeometry x="1090" y="1452" width="475" height="112" as="geometry" />
        </mxCell>
        <mxCell id="0Z_G-xEnXc7bXnKemrVB-653" value="&lt;font style=&quot;color: rgb(229, 229, 229); font-size: 60px;&quot;&gt;1&lt;/font&gt;" style="ellipse;whiteSpace=wrap;html=1;aspect=fixed;fillColor=#14213D;strokeColor=none;" vertex="1" parent="1">
          <mxGeometry x="291.5" y="1345" width="80" height="80" as="geometry" />
        </mxCell>
        <mxCell id="0Z_G-xEnXc7bXnKemrVB-654" value="&lt;font style=&quot;color: rgb(229, 229, 229); font-size: 60px;&quot;&gt;2&lt;/font&gt;" style="ellipse;whiteSpace=wrap;html=1;aspect=fixed;fillColor=#14213D;strokeColor=none;" vertex="1" parent="1">
          <mxGeometry x="284.5" y="2238" width="80" height="80" as="geometry" />
        </mxCell>
        <mxCell id="0Z_G-xEnXc7bXnKemrVB-655" value="&lt;font style=&quot;color: rgb(229, 229, 229); font-size: 60px;&quot;&gt;3&lt;/font&gt;" style="ellipse;whiteSpace=wrap;html=1;aspect=fixed;fillColor=#14213D;strokeColor=none;" vertex="1" parent="1">
          <mxGeometry x="771" y="2377" width="80" height="80" as="geometry" />
        </mxCell>
        <mxCell id="0Z_G-xEnXc7bXnKemrVB-656" value="&lt;font color=&quot;#e5e5e5&quot;&gt;&lt;span style=&quot;font-size: 60px;&quot;&gt;4&lt;/span&gt;&lt;/font&gt;" style="ellipse;whiteSpace=wrap;html=1;aspect=fixed;fillColor=#14213D;strokeColor=none;" vertex="1" parent="1">
          <mxGeometry x="1278" y="1345" width="80" height="80" as="geometry" />
        </mxCell>
      </root>
    </mxGraphModel>
  </diagram>
</mxfile>
